<svg width="20" height="20" viewBox="0 0 20 20" fill="none" xmlns="http://www.w3.org/2000/svg">
    <path opacity="0.4" d="M10 18.3333C14.6024 18.3333 18.3333 14.6024 18.3333 10C18.3333 5.39763 14.6024 1.66667 10 1.66667C5.39763 1.66667 1.66667 5.39763 1.66667 10C1.66667 14.6024 5.39763 18.3333 10 18.3333Z" fill="#2E4FFF" fill-opacity="0.3"/>
    <path d="M8.81667 12.9833C8.65 12.9833 8.49167 12.9167 8.375 12.8L6.01667 10.4417C5.775 10.2 5.775 9.80001 6.01667 9.55834C6.25834 9.31667 6.65834 9.31667 6.9 9.55834L8.81667 11.475L13.1 7.19167C13.3417 6.95001 13.7417 6.95001 13.9833 7.19167C14.225 7.43334 14.225 7.83334 13.9833 8.075L9.25834 12.8C9.14167 12.9167 8.98334 12.9833 8.81667 12.9833Z" fill="#2E4FFF" fill-opacity="0.3"/>
</svg>
